<svg xmlns="http://www.w3.org/2000/svg" xmlns:xlink="http://www.w3.org/1999/xlink" width="301.466" height="62.752" viewBox="0 0 301.466 62.752"><defs><linearGradient id="linear-gradient" y1="0.5" x2="1" y2="0.5" gradientUnits="objectBoundingBox"><stop offset="0" stop-color="#28348a"></stop><stop offset="0.094" stop-color="#234094"></stop><stop offset="0.267" stop-color="#1661b0"></stop><stop offset="0.498" stop-color="#0297dc"></stop><stop offset="0.524" stop-color="#009ee2"></stop><stop offset="0.696" stop-color="#25a6b0"></stop><stop offset="1" stop-color="#6eb652"></stop></linearGradient><linearGradient id="linear-gradient-2" x1="0.5" y1="1" x2="0.5" gradientUnits="objectBoundingBox"><stop offset="0" stop-color="#6eb652"></stop><stop offset="0.304" stop-color="#25a6b0"></stop><stop offset="0.476" stop-color="#009ee2"></stop><stop offset="0.502" stop-color="#0297dc"></stop><stop offset="0.733" stop-color="#1661b0"></stop><stop offset="0.906" stop-color="#234094"></stop><stop offset="1" stop-color="#28348a"></stop></linearGradient></defs><g id="Clean_Energy_Logo_1" data-name="Clean Energy Logo 1" transform="translate(-211.438 -71.515)"><path id="Path_2" data-name="Path 2" d="M192.083,56.374c0-6.886,4.762-11.465,11.89-11.465a11.524,11.524,0,0,1,8.857,3.609l-2.7,2.73a7.6,7.6,0,0,0-6.1-2.791c-4.519,0-7.521,3.185-7.521,7.947,0,4.823,3.063,8.007,7.583,8.007a7.385,7.385,0,0,0,6.551-3.549l2.881,2.578A11.258,11.258,0,0,1,204,67.96C196.875,67.96,192.083,63.321,192.083,56.374Zm38.852,7.734v3.549H216.741V45.212h4.276v18.9Zm18.622,0v3.549h-15.5V45.212h15.256v3.549H238.334v5.763h10.009v3.518H238.334v6.066Zm18.2-.91H257.41l-1.819,4.459H251.01L260.6,45.212h3.973l9.586,22.445h-4.581Zm-1.425-3.549-3.73-9.129-3.731,9.129Zm10.432-14.437h2.67l14.134,15.2-.092-15.2h4.277V67.657h-2.64l-14.133-15.2.06,15.2h-4.277Zm49.317,18.9v3.549h-15.5V45.212h15.256v3.549H314.854v5.763h10.009v3.518H314.854v6.066Zm4.214-18.9h2.669l14.134,15.2L347,45.212h4.278V67.657h-2.64L334.5,52.462l.06,15.2H330.29Zm41.824,18.9v3.549h-15.5V45.212h15.257v3.549H360.892v5.763H370.9v3.518H360.892v6.066Zm13.07-4.7H380.6v8.25h-4.276V45.212h9.4c4.731,0,7.855,2.851,7.855,7.1a6.569,6.569,0,0,1-4.155,6.279l5.915,9.068H390.31Zm-4.58-3.549h4.338c2.548,0,4.246-1.425,4.246-3.549s-1.577-3.549-3.943-3.549H380.6Zm38.852.577c0,6.916-4.306,11.526-11.07,11.526-6.946,0-11.556-4.61-11.556-11.526s4.549-11.526,11.556-11.526a12.321,12.321,0,0,1,7.946,2.487l-2.82,2.669a7.162,7.162,0,0,0-5.066-1.608c-4.306,0-7.188,3.185-7.188,7.977s2.85,7.977,7.158,7.977a6.178,6.178,0,0,0,6.551-5.853h-5.793V55.01H419.4C419.427,55.494,419.457,55.95,419.457,56.435Zm20.472-11.222-8.007,14.166v8.279h-4.278V59.378l-8.038-14.166h4.58L429.8,55.586l5.58-10.374ZM203.375,91.719v2.2H192.227V75.384h2.681V91.719Zm1.053-4.483a6.978,6.978,0,1,1,6.99,6.939A6.589,6.589,0,0,1,204.428,87.235Zm11.3,0c0-2.831-1.728-4.736-4.309-4.736-2.6,0-4.334,1.905-4.334,4.736s1.73,4.735,4.334,4.735C214,91.97,215.728,90.065,215.728,87.235Zm4.812,0a6.6,6.6,0,0,1,7.015-6.941,7.1,7.1,0,0,1,4.46,1.5l-1.454,1.754a4.424,4.424,0,0,0-2.98-1.053c-2.632,0-4.385,1.905-4.385,4.736s1.753,4.735,4.409,4.735a4.472,4.472,0,0,0,3.356-1.329l1.478,1.728a7.024,7.024,0,0,1-4.96,1.805A6.563,6.563,0,0,1,220.539,87.235Zm24.9-1.728v8.416h-2.481l-.049-2.354a5.179,5.179,0,0,1-4.559,2.605c-2.681,0-4.511-1.6-4.511-4.01,0-2.5,2.231-4.158,5.587-4.158a16.8,16.8,0,0,1,3.457.376v-.6a3.285,3.285,0,0,0-3.632-3.457,4.709,4.709,0,0,0-3.432,1.3L234.7,82.1a7.368,7.368,0,0,1,5.185-1.8C243.213,80.295,245.442,82.375,245.442,85.507Zm-2.556,2.629a15.387,15.387,0,0,0-3.131-.35c-1.953,0-3.231.927-3.231,2.3,0,1.354.927,2.229,2.555,2.229A3.964,3.964,0,0,0,242.886,88.136Zm6.239-13.754h2.556V93.924h-2.556ZM261.277,84.6c0-5.687,3.834-9.471,9.571-9.471a9.2,9.2,0,0,1,7.138,3.008l-1.677,1.7a6.767,6.767,0,0,0-5.387-2.507c-4.133,0-6.864,2.908-6.864,7.266,0,4.409,2.755,7.366,6.839,7.366a6.714,6.714,0,0,0,5.837-3.107l1.829,1.653a9.266,9.266,0,0,1-7.69,3.658C265.136,94.175,261.277,90.342,261.277,84.6Zm31.768-4.059V93.924h-2.454l-.051-1.929a5,5,0,0,1-4.409,2.18,4.918,4.918,0,0,1-5.211-5.211V80.545h2.555v7.992a3.508,3.508,0,0,0,7.015,0V80.545Zm11.4-.25-.174,2.354c-3.032,0-4.886,1.5-4.886,3.783v7.491h-2.555V80.545h2.454l.049,2.006C300.338,81.072,302.116,80.295,304.445,80.295Zm9.722,0-.176,2.354c-3.031,0-4.886,1.5-4.886,3.783v7.491h-2.555V80.545h2.456l.049,2.006C310.058,81.072,311.836,80.295,314.167,80.295Zm13.453,7.866h-10.2c.25,2.431,1.526,3.984,3.857,3.984a4.734,4.734,0,0,0,3.833-1.955l1.955,1.053a6.749,6.749,0,0,1-5.763,2.932c-3.933,0-6.588-2.757-6.588-6.89,0-4.184,2.579-6.99,6.489-6.99,3.882,0,6.463,2.706,6.463,6.764A7.819,7.819,0,0,1,327.62,88.161Zm-10.2-1.753h7.616c-.226-2.555-1.629-4.083-3.833-4.083S317.65,83.878,317.425,86.408Zm25.679-.9v8.416h-2.556V85.956a3.716,3.716,0,0,0-7.414,0v7.968h-2.556V80.545h2.456l.051,1.98a5.264,5.264,0,0,1,4.608-2.229C340.924,80.295,343.1,82.375,343.1,85.507Zm2.807,1.728a6.6,6.6,0,0,1,7.015-6.941,7.1,7.1,0,0,1,4.46,1.5l-1.454,1.754a4.428,4.428,0,0,0-2.982-1.053c-2.632,0-4.385,1.905-4.385,4.736s1.753,4.735,4.409,4.735a4.475,4.475,0,0,0,3.358-1.329l1.478,1.728a7.025,7.025,0,0,1-4.961,1.805A6.562,6.562,0,0,1,345.911,87.235Zm14.082,12.1.275-2.08a2.463,2.463,0,0,0,1.1.227c1.127,0,1.579-.728,2.129-1.78l.928-2-5.863-13.154h2.806l4.385,10.373,4.183-10.373h2.806l-6.764,15.483c-.927,2.229-1.9,3.657-4.184,3.657A4.285,4.285,0,0,1,359.993,99.335ZM383.82,77.589V83.9h7.34v2.2h-7.34v7.817h-2.681V75.384h11.048v2.2Zm22.924,2.956V93.924h-2.455l-.051-1.929a4.992,4.992,0,0,1-4.409,2.18,4.917,4.917,0,0,1-5.21-5.211V80.545h2.555v7.992a3.508,3.508,0,0,0,7.015,0V80.545Zm16.311,4.963v8.416H420.5V85.956a3.716,3.716,0,0,0-7.414,0v7.968h-2.556V80.545h2.456l.051,1.98a5.264,5.264,0,0,1,4.608-2.229C420.875,80.295,423.055,82.375,423.055,85.507Zm16.686-11.125V93.924H437.26l-.049-2.455a5.354,5.354,0,0,1-4.935,2.706c-3.683,0-6.414-2.757-6.414-6.89,0-4.184,2.73-6.99,6.414-6.99a5.3,5.3,0,0,1,4.91,2.681V74.382Zm-2.555,12.853c0-2.831-1.754-4.736-4.335-4.736-2.605,0-4.334,1.905-4.334,4.761,0,2.831,1.728,4.71,4.334,4.71C435.432,91.97,437.186,90.091,437.186,87.235Z" transform="translate(72.975 32.773)" fill="url(#linear-gradient)"></path><path id="Path_3" data-name="Path 3" d="M191.723,59.765a19.35,19.35,0,1,0-37.717,6.09h0q.13.387.275.767h.037a53.238,53.238,0,0,0,3.218,6.342,32.1,32.1,0,0,1,4.79,14.108l.012.108c.55,4.938,2.847,5.333,3.705,5.333v.023h2.253c.228,0,.39,0,.42,0h11.566a.38.38,0,0,1,.38.372l.012.472a.361.361,0,0,1-.361.371H166.33a2.98,2.98,0,0,0-2.98,2.98v1.215a3.209,3.209,0,0,0,3.351,3.381l7.865.058c3.892.005,6.083.74,7.488,1.782v-1.34c0-2.012-2.273-3.372-6.337-3.372l-8.624-.084c-.861,0-.67-.557-.67-.718v-.53a.393.393,0,0,1,.393-.393h13.94a3,3,0,0,0,3-2.982l.007-1.093a3.081,3.081,0,0,0-3.081-3.1H167.939c-.953-.014-1.529-.111-1.9-.666a4.767,4.767,0,0,1-.531-2.023c-.01-.088-.018-.158-.025-.207-1.028-6.975-4.96-14.787-6.71-17.89-.4-.707-.706-1.456-1.05-2.147a18.425,18.425,0,0,1-1.6-4.914,16.367,16.367,0,1,1,31.959,2.662l-.059.2h0l-.229.8c0,.007-.227.651-.483,1.251-.291.674-.693,1.535-.833,1.764-2.17,3.566-5.4,9.064-6.234,14.034-.008.047-.018.113-.027.195a2.318,2.318,0,0,1-1.175,1.919,3.332,3.332,0,0,1-1.345.34h-2.553a1.988,1.988,0,0,1-1.988-1.989s-.032-3.825-.048-3.823l0-.442,0-.41V69.379h-.016v-.114a.588.588,0,0,0-.589-.588H167.7a.588.588,0,0,1-.511-.88l.471-1.056,1.808-4.048,3.682-8.243a.588.588,0,0,1,1.086.41l-2.1,8.036a.59.59,0,0,0,.577.707h5.568a.588.588,0,0,1,.568.74l-3.306,12.435a.536.536,0,0,0,.814.583l.231-.157c3.131-2.192,5.9-6.607,5.477-11.192-.81-8.775-7.166-12.386-5.712-15.231.485-.946-.365-2.478-2.135-1.061-5.556,4.442-10.043,8.766-10.859,15.56-.054.453-.084.9-.1,1.341a12.58,12.58,0,0,0,2.777,8.418,11.721,11.721,0,0,0,4.131,3.189v5.4a4.226,4.226,0,0,0,4.227,4.225h.6c.014,0,.047,0,.086,0H178.3c2.536,0,4.319-1.647,4.732-4.879l.01-.082c.8-4.751,4.223-10.349,6.265-13.693l.265-.434a11.35,11.35,0,0,0,.955-2.144h.011l.063-.217c.334-1.012.518-1.85.531-1.889h0a19.3,19.3,0,0,0,.594-4.753" transform="translate(58.415 31.099)" fill="url(#linear-gradient-2)"></path></g></svg>