<svg xmlns="http://www.w3.org/2000/svg" width="302" height="63" viewBox="0 0 302 63" fill="none"><g clip-path="url(#clip0_4041_18206)"><path d="M53.6191 17.6329C53.6191 10.7469 58.3812 6.16787 65.5092 6.16787C67.1578 6.10029 68.8017 6.38753 70.3297 7.01016C71.8578 7.6328 73.2343 8.5763 74.3661 9.77688L71.6662 12.5069C70.9307 11.6059 69.9983 10.8858 68.9408 10.4019C67.8832 9.91806 66.7287 9.68335 65.5661 9.71587C61.0471 9.71587 58.0452 12.9009 58.0452 17.6629C58.0452 22.4859 61.1081 25.6699 65.6281 25.6699C66.9367 25.7121 68.2329 25.4057 69.384 24.7821C70.5351 24.1584 71.4998 23.24 72.1792 22.1209L75.0602 24.6989C73.9621 26.1724 72.5201 27.3547 70.8599 28.1426C69.1998 28.9304 67.372 29.3 65.5361 29.2189C58.4111 29.2189 53.6191 24.5799 53.6191 17.6329ZM92.4711 25.3669V28.9159H78.2771V6.47088H82.5531V25.3709L92.4711 25.3669ZM111.093 25.3669V28.9159H95.5932V6.47088H110.849V10.0199H99.8701V15.7829H109.879V19.3009H99.8701V25.3669H111.093ZM129.293 24.4569H118.946L117.127 28.9159H112.546L122.136 6.47088H126.109L135.695 28.9159H131.114L129.293 24.4569ZM127.868 20.9079L124.138 11.7789L120.407 20.9079H127.868ZM138.3 6.47088H140.97L155.104 21.6709L155.012 6.47088H159.289V28.9159H156.649L142.516 13.7159L142.576 28.9159H138.299L138.3 6.47088ZM187.617 25.3709V28.9199H172.117V6.47088H187.373V10.0199H176.39V15.7829H186.399V19.3009H176.39V25.3669L187.617 25.3709ZM191.831 6.47088H194.5L208.634 21.6709L208.536 6.47088H212.814V28.9159H210.174L196.036 13.7209L196.096 28.9209H191.826L191.831 6.47088ZM233.655 25.3709V28.9199H218.155V6.47088H233.412V10.0199H222.428V15.7829H232.436V19.3009H222.428V25.3669L233.655 25.3709ZM246.725 20.6709H242.136V28.9209H237.86V6.47088H247.26C251.991 6.47088 255.115 9.32187 255.115 13.5709C255.15 14.9172 254.77 16.2416 254.027 17.3647C253.283 18.4879 252.213 19.3554 250.96 19.8499L256.875 28.9179H251.846L246.725 20.6709ZM242.145 17.1219H246.483C249.031 17.1219 250.729 15.6969 250.729 13.5729C250.729 11.4489 249.152 10.0239 246.786 10.0239H242.136L242.145 17.1219ZM280.997 17.6989C280.997 24.6149 276.691 29.2249 269.927 29.2249C262.981 29.2249 258.371 24.6149 258.371 17.6989C258.371 10.7829 262.92 6.17287 269.927 6.17287C272.784 6.05471 275.593 6.93394 277.873 8.65987L275.053 11.3289C273.633 10.1629 271.82 9.58724 269.987 9.72088C265.681 9.72088 262.799 12.9059 262.799 17.6979C262.799 22.4899 265.649 25.6749 269.957 25.6749C270.773 25.7253 271.59 25.6134 272.362 25.3457C273.134 25.0781 273.845 24.66 274.454 24.1157C275.064 23.5713 275.559 22.9115 275.911 22.1745C276.264 21.4375 276.467 20.6378 276.508 19.8219H270.715V16.2689H280.936C280.963 16.7529 280.993 17.2089 280.993 17.6939L280.997 17.6989ZM301.469 6.47687L293.462 20.6429V28.9219H289.184V20.6369L281.146 6.47088H285.726L291.336 16.8449L296.916 6.47088L301.469 6.47687ZM64.9111 52.9779V55.1779H53.7632V36.6429H56.4442V52.9779H64.9111ZM65.9641 48.4949C65.9564 47.1136 66.3588 45.7612 67.1203 44.6088C67.8818 43.4564 68.9682 42.556 70.2419 42.0215C71.5155 41.487 72.9192 41.3425 74.275 41.6064C75.6308 41.8702 76.8779 42.5305 77.8581 43.5037C78.8384 44.4768 79.5078 45.7189 79.7816 47.0728C80.0554 48.4266 79.9212 49.8313 79.3961 51.1088C78.8709 52.3864 77.9784 53.4793 76.8317 54.2493C75.6849 55.0192 74.3354 55.4315 72.9541 55.4339C72.0254 55.4919 71.0949 55.3526 70.2239 55.025C69.3528 54.6975 68.5611 54.1892 67.9007 53.5335C67.2404 52.8779 66.7264 52.0898 66.3926 51.2212C66.0588 50.3525 65.9128 49.424 65.9641 48.4949ZM77.2641 48.4949C77.2641 45.6639 75.5362 43.7589 72.9552 43.7589C70.3552 43.7589 68.6212 45.6639 68.6212 48.4949C68.6212 51.3259 70.3512 53.2299 72.9552 53.2299C75.5362 53.2289 77.2641 51.3249 77.2641 48.4949ZM82.0761 48.4949C82.026 47.5638 82.1738 46.6328 82.5096 45.763C82.8454 44.8932 83.3617 44.1044 84.0245 43.4486C84.6873 42.7928 85.4815 42.2849 86.3548 41.9583C87.2281 41.6317 88.1607 41.4939 89.0911 41.5539C90.7051 41.5324 92.2782 42.0614 93.5511 43.0539L92.0972 44.8079C91.2674 44.1019 90.2062 43.727 89.1171 43.7549C86.4851 43.7549 84.7321 45.6599 84.7321 48.4909C84.7321 51.3219 86.4851 53.2259 89.1411 53.2259C89.7622 53.2497 90.3814 53.1438 90.9592 52.915C91.537 52.6862 92.0608 52.3394 92.4971 51.8969L93.9751 53.6249C92.6193 54.8485 90.8403 55.4959 89.0152 55.4299C88.0898 55.4847 87.1633 55.3429 86.2968 55.0138C85.4302 54.6847 84.6431 54.1757 83.9875 53.5204C83.3318 52.8652 82.8224 52.0784 82.4928 51.212C82.1632 50.3456 82.0208 49.4193 82.0751 48.4939L82.0761 48.4949ZM106.976 46.7669V55.1829H104.495L104.446 52.8289C103.987 53.63 103.323 54.294 102.521 54.752C101.72 55.21 100.81 55.4454 99.8871 55.4339C97.2061 55.4339 95.3761 53.8339 95.3761 51.4239C95.3761 48.9239 97.6072 47.2659 100.963 47.2659C102.125 47.2713 103.284 47.3973 104.42 47.6419V47.0419C104.448 46.5654 104.371 46.0887 104.196 45.6448C104.021 45.2009 103.751 44.8005 103.406 44.4714C103.06 44.1424 102.647 43.8926 102.195 43.7395C101.743 43.5864 101.263 43.5337 100.788 43.5849C100.158 43.5608 99.5298 43.6635 98.9403 43.8868C98.3508 44.1101 97.8121 44.4495 97.3562 44.8849L96.2361 43.3589C97.6682 42.1135 99.5255 41.4687 101.421 41.5589C104.749 41.5539 106.978 43.6339 106.978 46.7659L106.976 46.7669ZM104.42 49.3959C103.391 49.1724 102.342 49.0551 101.289 49.0459C99.3362 49.0459 98.0582 49.9729 98.0582 51.3459C98.0582 52.6999 98.9851 53.5749 100.613 53.5749C101.139 53.5551 101.656 53.4307 102.134 53.209C102.611 52.9873 103.04 52.6727 103.394 52.2836C103.749 51.8945 104.022 51.4386 104.199 50.9426C104.375 50.4467 104.451 49.9205 104.422 49.3949L104.42 49.3959ZM110.659 35.6419H113.215V55.1829H110.659V35.6419ZM122.813 45.8589C122.813 40.1719 126.647 36.3879 132.384 36.3879C133.721 36.3401 135.052 36.5845 136.285 37.104C137.518 37.6236 138.623 38.4057 139.522 39.3959L137.845 41.0959C137.197 40.2957 136.375 39.6539 135.442 39.2195C134.508 38.7851 133.488 38.5694 132.458 38.5889C128.325 38.5889 125.594 41.4969 125.594 45.8549C125.594 50.2639 128.349 53.2209 132.433 53.2209C133.591 53.2507 134.738 52.9802 135.761 52.4358C136.784 51.8913 137.648 51.0914 138.27 50.1139L140.099 51.7669C139.203 52.947 138.037 53.8951 136.699 54.5316C135.361 55.1681 133.89 55.4744 132.409 55.4249C126.672 55.4339 122.813 51.6009 122.813 45.8589ZM154.581 41.7999V55.1829H152.127L152.076 53.2539C151.591 53.9664 150.931 54.5415 150.158 54.9235C149.386 55.3055 148.528 55.4813 147.667 55.4339C146.972 55.4767 146.275 55.3713 145.623 55.1245C144.972 54.8778 144.38 54.4954 143.887 54.0027C143.395 53.51 143.012 52.9182 142.765 52.2666C142.519 51.615 142.413 50.9183 142.456 50.2229V41.8039H145.011V49.7959C145.027 50.7159 145.403 51.5929 146.059 52.238C146.715 52.8831 147.599 53.2446 148.519 53.2446C149.439 53.2446 150.322 52.8831 150.978 52.238C151.634 51.5929 152.011 50.7159 152.026 49.7959V41.8039L154.581 41.7999ZM165.981 41.5499L165.807 43.9039C162.775 43.9039 160.921 45.4039 160.921 47.6869V55.1779H158.366V41.8039H160.82L160.869 43.8099C161.874 42.3309 163.652 41.5539 165.981 41.5539V41.5499ZM175.703 41.5499L175.527 43.9039C172.496 43.9039 170.641 45.4039 170.641 47.6869V55.1779H168.086V41.8039H170.542L170.591 43.8099C171.594 42.3309 173.372 41.5539 175.703 41.5539V41.5499ZM189.156 49.4159H178.956C179.206 51.8469 180.482 53.3999 182.813 53.3999C183.561 53.4 184.298 53.2228 184.965 52.883C185.631 52.5432 186.207 52.0504 186.646 51.4449L188.601 52.4979C187.963 53.4299 187.101 54.1867 186.094 54.699C185.087 55.2112 183.967 55.4625 182.838 55.4299C178.905 55.4299 176.25 52.6729 176.25 48.5399C176.25 44.3559 178.829 41.5499 182.739 41.5499C186.621 41.5499 189.202 44.2559 189.202 48.3139C189.213 48.6832 189.198 49.0528 189.156 49.4199V49.4159ZM178.956 47.6629H186.572C186.346 45.1079 184.943 43.5799 182.739 43.5799C180.535 43.5799 179.186 45.1369 178.961 47.6669L178.956 47.6629ZM204.635 46.7629V55.1789H202.079V47.2149C202.014 46.2764 201.595 45.3976 200.907 44.7559C200.219 44.1142 199.313 43.7573 198.372 43.7573C197.431 43.7573 196.526 44.1142 195.838 44.7559C195.15 45.3976 194.731 46.2764 194.665 47.2149V55.1829H192.109V41.8039H194.565L194.616 43.7839C195.131 43.051 195.825 42.4616 196.631 42.0715C197.437 41.6815 198.33 41.5037 199.224 41.5549C202.46 41.5539 204.636 43.6339 204.636 46.7659L204.635 46.7629ZM207.442 48.4909C207.392 47.5598 207.54 46.6288 207.876 45.759C208.211 44.8892 208.728 44.1004 209.391 43.4446C210.053 42.7888 210.848 42.2809 211.721 41.9543C212.594 41.6277 213.527 41.4899 214.457 41.5499C216.071 41.5284 217.644 42.0574 218.917 43.0499L217.463 44.8039C216.633 44.0978 215.571 43.7228 214.481 43.7509C211.849 43.7509 210.096 45.6559 210.096 48.4869C210.096 51.3179 211.849 53.2219 214.505 53.2219C215.126 53.2458 215.746 53.14 216.324 52.9112C216.902 52.6823 217.426 52.3355 217.863 51.8929L219.341 53.6209C217.985 54.8446 216.206 55.4921 214.38 55.4259C213.456 55.4798 212.53 55.3374 211.665 55.0082C210.799 54.6789 210.013 54.1701 209.358 53.5154C208.704 52.8606 208.195 52.0747 207.865 51.2092C207.536 50.3437 207.393 49.4183 207.447 48.4939L207.442 48.4909ZM221.524 60.5909L221.799 58.5109C222.143 58.6702 222.52 58.7479 222.899 58.7379C224.026 58.7379 224.478 58.0099 225.028 56.9579L225.956 54.9579L220.093 41.8039H222.899L227.284 52.1769L231.467 41.8039H234.273L227.509 57.2869C226.582 59.5159 225.609 60.9439 223.325 60.9439C222.708 60.9579 222.096 60.8385 221.529 60.5939L221.524 60.5909ZM245.356 38.8479V45.1589H252.696V47.3589H245.356V55.1759H242.675V36.6429H253.723V38.8429L245.356 38.8479ZM268.28 41.8039V55.1829H265.825L265.774 53.2539C265.29 53.967 264.629 54.5425 263.857 54.9246C263.084 55.3066 262.226 55.4821 261.365 55.4339C260.67 55.4767 259.973 55.3713 259.322 55.1245C258.67 54.8778 258.078 54.4954 257.586 54.0027C257.093 53.51 256.711 52.9182 256.464 52.2665C256.217 51.6149 256.112 50.9183 256.155 50.2229V41.8039H258.71V49.7959C258.726 50.7159 259.102 51.5929 259.758 52.238C260.414 52.8831 261.298 53.2446 262.218 53.2446C263.138 53.2446 264.021 52.8831 264.677 52.238C265.333 51.5929 265.71 50.7159 265.725 49.7959V41.8039H268.28ZM284.591 46.7669V55.1829H282.036V47.2149C281.971 46.2764 281.552 45.3976 280.864 44.7559C280.176 44.1142 279.27 43.7573 278.329 43.7573C277.388 43.7573 276.483 44.1142 275.795 44.7559C275.107 45.3976 274.688 46.2764 274.622 47.2149V55.1829H272.066V41.8039H274.522L274.573 43.7839C275.088 43.051 275.782 42.4616 276.588 42.0715C277.394 41.6815 278.287 41.5037 279.181 41.5549C282.411 41.5539 284.591 43.6349 284.591 46.7669ZM301.277 35.6419V55.1829H298.796L298.747 52.7279C298.257 53.5926 297.536 54.3037 296.664 54.7816C295.792 55.2596 294.805 55.4854 293.812 55.4339C290.129 55.4339 287.398 52.6769 287.398 48.5439C287.398 44.3599 290.128 41.5539 293.812 41.5539C294.799 41.4984 295.782 41.72 296.65 42.1938C297.517 42.6676 298.235 43.3745 298.722 44.2349V35.6409L301.277 35.6419ZM298.722 48.4949C298.722 45.6639 296.968 43.7589 294.387 43.7589C291.782 43.7589 290.053 45.6639 290.053 48.5199C290.053 51.3509 291.781 53.2299 294.387 53.2299C296.968 53.2289 298.722 51.3509 298.722 48.4949Z" fill="white"></path><path d="M38.7 19.349C38.6999 16.5471 38.0912 13.7786 36.9162 11.235C35.7411 8.69145 34.0277 6.43339 31.8943 4.61696C29.761 2.80053 27.2586 1.46907 24.5601 0.714636C21.8617 -0.0397989 19.0317 -0.199214 16.2656 0.247412C13.4995 0.694038 10.8634 1.73605 8.53957 3.30141C6.21572 4.86677 4.25955 6.91813 2.80628 9.31367C1.35301 11.7092 0.437325 14.3918 0.122522 17.176C-0.192281 19.9601 0.101304 22.7794 0.982995 25.439C1.06966 25.697 1.16134 25.9527 1.258 26.206H1.29499C2.2251 28.3894 3.30017 30.5081 4.51299 32.548C7.19402 36.8099 8.83489 41.6427 9.303 46.656L9.315 46.764C9.865 51.702 12.162 52.097 13.02 52.097V52.12H15.273C15.501 52.12 15.663 52.12 15.693 52.12H27.259C27.3584 52.12 27.4539 52.1589 27.5249 52.2284C27.596 52.298 27.6369 52.3926 27.639 52.492L27.651 52.964C27.6523 53.0122 27.644 53.0603 27.6264 53.1052C27.6089 53.1502 27.5825 53.1912 27.5489 53.2257C27.5152 53.2603 27.475 53.2878 27.4305 53.3066C27.386 53.3254 27.3383 53.335 27.29 53.335H13.307C12.5167 53.335 11.7587 53.649 11.1998 54.2078C10.641 54.7667 10.327 55.5246 10.327 56.315V57.53C10.3025 57.9779 10.3721 58.4259 10.5315 58.8452C10.6908 59.2645 10.9363 59.6457 11.252 59.9643C11.5678 60.2829 11.9468 60.5318 12.3647 60.6948C12.7825 60.8579 13.2299 60.9315 13.678 60.911L21.543 60.969C25.435 60.974 27.626 61.709 29.031 62.751V61.411C29.031 59.399 26.758 58.039 22.694 58.039L14.07 57.955C13.209 57.955 13.4 57.398 13.4 57.237V56.707C13.4 56.6028 13.4414 56.5028 13.5151 56.4291C13.5888 56.3554 13.6888 56.314 13.793 56.314H27.733C28.5255 56.314 29.2859 56.0004 29.848 55.4417C30.4101 54.883 30.7282 54.1245 30.733 53.332L30.74 52.239C30.7425 51.8328 30.6647 51.4301 30.511 51.0541C30.3572 50.6781 30.1307 50.3362 29.8443 50.0481C29.558 49.76 29.2175 49.5313 28.8424 49.3753C28.4674 49.2193 28.0652 49.139 27.659 49.139H14.916C13.963 49.125 13.387 49.028 13.016 48.473C12.6914 47.8463 12.5101 47.1553 12.485 46.45C12.475 46.362 12.467 46.292 12.46 46.243C11.432 39.268 7.49999 31.456 5.74999 28.353C5.34999 27.646 5.04401 26.897 4.70001 26.206C3.93846 24.6513 3.39983 22.997 3.1 21.292C2.8125 18.8814 3.06483 16.4371 3.83871 14.1362C4.61259 11.8352 5.88865 9.73518 7.57441 7.9883C9.26017 6.24142 11.3134 4.89142 13.5854 4.03612C15.8573 3.18081 18.2911 2.84163 20.7104 3.04314C23.1296 3.24465 25.4738 3.9818 27.5729 5.2012C29.6721 6.42059 31.4737 8.09168 32.8472 10.0934C34.2207 12.0951 35.1318 14.3773 35.5143 16.7746C35.8969 19.1719 35.7413 21.6242 35.059 23.954L35 24.154L34.771 24.954C34.771 24.961 34.544 25.605 34.288 26.205C33.997 26.879 33.595 27.74 33.455 27.969C31.285 31.535 28.055 37.033 27.221 42.003C27.213 42.05 27.203 42.116 27.194 42.198C27.1772 42.5913 27.0605 42.9739 26.855 43.3096C26.6494 43.6454 26.3617 43.9232 26.019 44.117C25.5995 44.3234 25.1412 44.4393 24.674 44.457H22.121C21.8598 44.457 21.6013 44.4055 21.36 44.3056C21.1187 44.2056 20.8995 44.0591 20.7149 43.8744C20.5303 43.6897 20.3839 43.4704 20.284 43.2291C20.1842 42.9878 20.1329 42.7291 20.133 42.468C20.133 42.468 20.101 38.643 20.085 38.645V38.203V37.793V28.963H20.069V28.849C20.069 28.7717 20.0538 28.6951 20.0241 28.6237C19.9945 28.5523 19.9511 28.4875 19.8964 28.4329C19.8417 28.3782 19.7768 28.335 19.7053 28.3055C19.6339 28.276 19.5573 28.2609 19.48 28.261H14.677C14.5739 28.2611 14.4726 28.2341 14.3833 28.1827C14.2939 28.1314 14.2196 28.0574 14.1679 27.9683C14.1161 27.8791 14.0887 27.778 14.0884 27.6749C14.088 27.5718 14.1148 27.4705 14.166 27.381L14.637 26.325L16.445 22.277L20.127 14.034C20.1966 13.913 20.307 13.8206 20.4384 13.7735C20.5699 13.7265 20.7138 13.7277 20.8444 13.777C20.975 13.8263 21.0838 13.9205 21.1514 14.0427C21.2189 14.1649 21.2407 14.3072 21.213 14.444L19.113 22.48C19.0957 22.5656 19.0976 22.6539 19.1185 22.7386C19.1395 22.8234 19.179 22.9024 19.2342 22.97C19.2894 23.0377 19.3589 23.0922 19.4377 23.1297C19.5165 23.1672 19.6027 23.1868 19.69 23.187H25.258C25.3482 23.187 25.4371 23.2077 25.518 23.2476C25.5989 23.2875 25.6695 23.3454 25.7244 23.417C25.7793 23.4885 25.8171 23.5717 25.8347 23.6601C25.8523 23.7486 25.8493 23.8399 25.826 23.927L22.52 36.362C22.4925 36.467 22.4975 36.5778 22.5344 36.6799C22.5712 36.7819 22.6382 36.8704 22.7264 36.9336C22.8146 36.9967 22.9199 37.0317 23.0284 37.0337C23.1369 37.0357 23.2435 37.0048 23.334 36.945L23.565 36.788C26.696 34.596 29.465 30.181 29.042 25.596C28.232 16.821 21.876 13.21 23.33 10.365C23.815 9.41899 22.965 7.88699 21.195 9.30399C15.639 13.746 11.152 18.07 10.336 24.864C10.282 25.317 10.252 25.764 10.236 26.205C10.1097 29.255 11.0966 32.2469 13.013 34.623C14.1328 35.9829 15.5448 37.0729 17.144 37.812V43.212C17.1441 43.767 17.2536 44.3165 17.4661 44.8291C17.6786 45.3418 17.99 45.8076 18.3825 46.1999C18.775 46.5923 19.2409 46.9034 19.7537 47.1157C20.2665 47.3279 20.816 47.4371 21.371 47.437H21.971C21.985 47.437 22.018 47.437 22.057 47.437H25.277C27.813 47.437 29.596 45.79 30.009 42.558L30.019 42.476C30.819 37.725 34.242 32.127 36.284 28.783L36.549 28.349C36.9406 27.6692 37.2606 26.9507 37.504 26.205H37.515L37.578 25.988C37.912 24.976 38.096 24.138 38.109 24.099C38.5036 22.5455 38.7031 20.9488 38.703 19.346" fill="white"></path></g><defs><clipPath id="clip0_4041_18206"><rect width="301.466" height="62.752" fill="white"></rect></clipPath></defs></svg>