<svg xmlns="http://www.w3.org/2000/svg" width="120" height="75" viewBox="0 0 120 75" fill="none"><rect width="119.5" height="75" fill="white"></rect><path d="M7.54007 30.8886V34.8553H17.8305V39.2935H7.54007V48.4931H2V26H19.2474V30.8886H7.54007ZM27.6509 49C26.7264 48.9992 25.8094 48.83 24.9431 48.5002C24.0586 48.1646 23.2553 47.6381 22.5877 46.9566C21.8628 46.2084 21.2954 45.3164 20.9202 44.3357C20.4997 43.2842 20.2901 42.0403 20.2912 40.6039V32.5593H25.8209V40.6004C25.8209 41.6295 26.0784 42.4872 26.5934 43.1736C27.1083 43.8601 27.8911 44.2074 28.9418 44.2156C29.3962 44.2223 29.8449 44.1118 30.2464 43.8942C30.6224 43.6901 30.9544 43.4108 31.2227 43.0729C31.4902 42.7318 31.6978 42.3457 31.8361 41.9321C31.9824 41.5083 32.0573 41.0622 32.0574 40.6128L32.0919 32.5593H37.5992V48.4808H32.9059L32.1835 46.7765H32.0246C31.5898 47.5187 30.934 48.0992 30.1531 48.433C29.3672 48.7995 28.5146 48.9927 27.6509 49ZM50.0911 32.0789C52.4619 32.0789 54.2822 32.7601 55.5517 34.1223C56.8212 35.4846 57.4548 37.6039 57.4525 40.4803V48.4896H51.9471V40.475C51.9471 39.446 51.7166 38.6094 51.2558 37.9654C50.795 37.3213 49.9765 36.9999 48.8003 37.0011C48.3488 36.9945 47.902 37.0936 47.4939 37.2908C47.1151 37.4759 46.7775 37.7387 46.502 38.0625C46.2273 38.3895 46.014 38.7655 45.873 39.1716C45.7265 39.5898 45.6521 40.0308 45.6535 40.475V48.4843H40.1774V32.5593H44.8344L45.5257 34.3254H45.6829C46.115 33.5813 46.7563 32.9874 47.5233 32.6211C48.3297 32.2496 49.2065 32.0644 50.0911 32.0789ZM77 26V48.4843H72.1528L71.5549 46.6193H71.4288C71.0693 47.4391 70.4244 48.093 69.6196 48.4543C68.8078 48.8019 67.9353 48.9767 67.0552 48.9682C65.9176 48.9964 64.7866 48.7829 63.7339 48.3413C62.8415 47.954 62.0532 47.353 61.4356 46.5893C60.8162 45.7958 60.3612 44.8819 60.0981 43.903C59.7933 42.7772 59.6449 41.6131 59.6575 40.445C59.6301 39.1726 59.8382 37.9065 60.2709 36.7132C60.6356 35.7342 61.1933 34.8421 61.9091 34.0923C62.5705 33.4086 63.3703 32.8812 64.2524 32.547C65.1188 32.2178 66.0357 32.0491 66.9602 32.0489C67.8489 32.0368 68.7295 32.2237 69.5401 32.5964C70.3025 32.9483 70.9399 33.5325 71.3649 34.2689H71.4911V27.3511L77 26ZM71.46 40.4432C71.46 39.9963 71.3749 39.5535 71.2094 39.1398C71.0476 38.7331 70.8185 38.3579 70.532 38.0307C70.2522 37.7116 69.9156 37.4496 69.5401 37.2589C69.1696 37.0668 68.7597 36.9676 68.3443 36.9692C67.9528 36.9718 67.5663 37.0596 67.2107 37.2271C66.8322 37.3994 66.4866 37.6385 66.1894 37.9336C65.8779 38.2439 65.6315 38.6158 65.4654 39.0268C65.2831 39.4743 65.1919 39.955 65.1975 40.4397C65.1898 40.9773 65.2807 41.5117 65.4654 42.0151C65.6215 42.4522 65.8559 42.8559 66.1566 43.2054C66.4242 43.5156 66.7504 43.7673 67.1156 43.9454C67.4491 44.1113 67.8145 44.1994 68.1854 44.2033C68.589 44.202 68.9889 44.1254 69.3656 43.9772C69.7598 43.8237 70.1186 43.5886 70.4197 43.2867C70.7489 42.9529 71.0066 42.553 71.1766 42.1122C71.3747 41.5796 71.4709 41.013 71.46 40.4432Z" fill="#312783"></path><path d="M101.066 44.8777C99.8735 46.2739 98.3419 47.3555 96.6124 48.0234C94.9367 48.6679 93.1525 48.9989 91.3526 48.9994C89.683 49.0152 88.0256 48.727 86.4639 48.1495C85.0176 47.617 83.6904 46.8158 82.5555 45.7898C81.442 44.7718 80.5547 43.5406 79.9487 42.1726C79.3198 40.6942 78.9973 39.1083 79 37.507C79.0028 35.9057 79.3306 34.3209 79.9646 32.8445C80.5821 31.466 81.4799 30.2248 82.6032 29.1962C83.7414 28.1664 85.0762 27.3663 86.531 26.8418C88.0724 26.2762 89.7065 25.9911 91.3526 26.0005C93.2219 25.984 95.0747 26.3537 96.7886 27.0853C98.4287 27.7861 99.89 28.8339 101.066 30.1532L96.5976 33.2989C95.9638 32.5351 95.1581 31.9248 94.243 31.5155C93.3287 31.1062 92.3294 30.909 91.324 30.9392C90.3611 30.9237 89.4043 31.0951 88.5092 31.4436C87.7225 31.7528 87.0104 32.2187 86.4179 32.8117C85.8389 33.4047 85.3952 34.1113 85.1164 34.8846C84.5135 36.5866 84.5135 38.4375 85.1164 40.1395C85.3978 40.9233 85.8497 41.6381 86.4409 42.2345C87.0323 42.831 87.7486 43.2949 88.5404 43.5942C89.4364 43.935 90.3915 44.1034 91.3526 44.09C92.3433 44.0971 93.327 43.9158 94.2473 43.5563C95.1746 43.1818 95.9925 42.5883 96.628 41.8288L101.066 44.8777ZM117.885 34.4787C117.423 33.4871 116.774 32.5902 115.97 31.8357C115.156 31.0742 114.201 30.471 113.157 30.0582C110.945 29.1981 108.481 29.1981 106.269 30.0582C105.224 30.4713 104.269 31.0745 103.454 31.8357C102.653 32.5886 102.008 33.4861 101.557 34.4787C101.1 35.4952 100.865 36.5935 100.865 37.7038C100.865 38.8141 101.1 39.9123 101.557 40.9289C102.008 41.9219 102.652 42.8196 103.454 43.5718C105.143 45.1383 107.383 46.0114 109.711 46.0114C112.038 46.0114 114.277 45.1383 115.967 43.5718C116.771 42.818 117.42 41.9209 117.881 40.9289C118.348 39.9149 118.589 38.8157 118.589 37.7038C118.589 36.5918 118.348 35.4926 117.881 34.4787H117.885ZM109.731 41.5403C108.955 41.5403 108.196 41.3154 107.551 40.8938C106.906 40.4722 106.403 39.873 106.107 39.172C105.81 38.4709 105.732 37.6995 105.883 36.9553C106.034 36.2111 106.409 35.5275 106.957 34.9909C107.505 34.4543 108.204 34.0889 108.966 33.9409C109.726 33.7929 110.515 33.8688 111.232 34.1592C111.948 34.4496 112.561 34.9414 112.992 35.5722C113.423 36.2032 113.653 36.945 113.653 37.7038C113.653 38.7207 113.24 39.696 112.505 40.4155C111.771 41.1348 110.774 41.5395 109.734 41.5403H109.731Z" fill="#36A9E1"></path></svg>