<svg xmlns="http://www.w3.org/2000/svg" id="Group_74" data-name="Group 74" width="245.971" height="71.437" viewBox="0 0 245.971 71.437"><path id="Path_102" data-name="Path 102" d="M1084.4,3779.077a4.916,4.916,0,0,0-6.174,2.046,4.906,4.906,0,0,0,0,4.926,4.963,4.963,0,0,0,1.788,1.78,4.82,4.82,0,0,0,2.482.659,4.928,4.928,0,0,0,1.89-.366,5.337,5.337,0,0,0,1.636-1.044l.7.751a6.718,6.718,0,0,1-1.992,1.27,5.832,5.832,0,0,1-2.289.47,6.045,6.045,0,0,1-5.241-2.974,5.783,5.783,0,0,1-.809-2.993,5.655,5.655,0,0,1,.817-2.977,6.194,6.194,0,0,1,9.5-1.27l-.685.8A5.165,5.165,0,0,0,1084.4,3779.077Z" transform="translate(-1076.396 -3718.133)" fill="#fff"></path><path id="Path_103" data-name="Path 103" d="M1089.835,3785.28h5.588l-2.809-6.321Zm7.419,4.147-1.387-3.11h-6.479l-1.369,3.11h-1.239l5.266-11.684h1.2l5.266,11.687Z" transform="translate(-1070.719 -3718.1)" fill="#fff"></path><path id="Path_104" data-name="Path 104" d="M1105.7,3783.848a2.7,2.7,0,0,0,.913-2.2,2.591,2.591,0,0,0-.9-2.139,4.006,4.006,0,0,0-2.589-.733h-3.109v5.833h3.1A3.935,3.935,0,0,0,1105.7,3783.848Zm.829-5.1a3.562,3.562,0,0,1,1.186,2.868,3.778,3.778,0,0,1-1.186,2.978,4.878,4.878,0,0,1-3.359,1.051h-3.16v3.78h-1.154v-11.684h4.313A5.05,5.05,0,0,1,1106.528,3778.75Z" transform="translate(-1064.12 -3718.1)" fill="#fff"></path><rect id="Rectangle_59" data-name="Rectangle 59" width="1.153" height="11.682" transform="translate(50.917 59.644)" fill="#fff"></rect><path id="Path_105" data-name="Path 105" d="M1114.613,3777.73h8.876v1.055h-3.86v10.649h-1.153v-10.649h-3.863Z" transform="translate(-1055.507 -3718.108)" fill="#fff"></path><path id="Path_106" data-name="Path 106" d="M1126.129,3785.28h5.584l-2.809-6.321Zm7.42,4.147-1.389-3.11h-6.485l-1.378,3.11h-1.237l5.266-11.684h1.2l5.266,11.687Z" transform="translate(-1050.889 -3718.1)" fill="#fff"></path><path id="Path_107" data-name="Path 107" d="M1135.137,3777.744h1.153v10.65h5.148v1.037h-6.3Z" transform="translate(-1044.289 -3718.1)" fill="#fff"></path><path id="Path_108" data-name="Path 108" d="M1150.145,3777.73h1.439l4.578,8.788,4.53-8.788h1.439v11.718h-1.07l-.018-10.1-4.578,8.84h-.645l-4.578-8.854v10.1h-1.1Z" transform="translate(-1036.086 -3718.108)" fill="#fff"></path><path id="Path_109" data-name="Path 109" d="M1165.435,3785.28h5.581l-2.808-6.321Zm7.424,4.147-1.389-3.11h-6.485l-1.381,3.11h-1.237l5.266-11.684h1.2l5.277,11.684Z" transform="translate(-1029.406 -3718.1)" fill="#fff"></path><path id="Path_110" data-name="Path 110" d="M1182.921,3777.744h1.139v11.683h-1.223l-7.236-9.887v9.887h-1.153v-11.683h1.23l7.254,9.888Z" transform="translate(-1022.803 -3718.1)" fill="#fff"></path><path id="Path_111" data-name="Path 111" d="M1188.219,3785.28h5.58l-2.805-6.321Zm7.419,4.147-1.384-3.11h-6.486l-1.373,3.11h-1.237l5.266-11.684h1.2l5.266,11.687Z" transform="translate(-1016.949 -3718.1)" fill="#fff"></path><path id="Path_112" data-name="Path 112" d="M1205.658,3783.743h1.018v4.287a6.37,6.37,0,0,1-1.981,1.127,6.606,6.606,0,0,1-2.3.412,6.1,6.1,0,0,1-5.266-2.974,5.74,5.74,0,0,1-.82-2.993,5.641,5.641,0,0,1,.82-2.977,6.018,6.018,0,0,1,2.23-2.148,6.2,6.2,0,0,1,3.084-.792,6.479,6.479,0,0,1,2.3.417,6.263,6.263,0,0,1,1.963,1.167l-.667.821a5.152,5.152,0,0,0-1.655-1.03,5.388,5.388,0,0,0-1.941-.365,4.867,4.867,0,0,0-2.49.658,5.011,5.011,0,0,0-1.805,1.784,4.706,4.706,0,0,0-.667,2.457,4.788,4.788,0,0,0,.667,2.479,4.987,4.987,0,0,0,4.314,2.45,5.241,5.241,0,0,0,1.662-.275,5.755,5.755,0,0,0,1.531-.777Z" transform="translate(-1010.852 -3718.133)" fill="#fff"></path><path id="Path_113" data-name="Path 113" d="M1208.454,3777.744h7.826v1.037h-6.672v4.179h5.969V3784h-5.969v4.395h6.888v1.037h-8.056Z" transform="translate(-1004.223 -3718.1)" fill="#fff"></path><path id="Path_114" data-name="Path 114" d="M1223.08,3784.611a3.844,3.844,0,0,0,2.563-.763,2.714,2.714,0,0,0,.9-2.2,2.607,2.607,0,0,0-.9-2.139,3.973,3.973,0,0,0-2.563-.733h-3.209v5.833Zm3.342,4.816-2.522-3.813c-.367.021-.63.033-.82.033h-3.209v3.78h-1.152v-11.684h4.361a5.07,5.07,0,0,1,3.384,1.012,3.541,3.541,0,0,1,1.2,2.867,4.026,4.026,0,0,1-.7,2.424,3.662,3.662,0,0,1-2.006,1.355l2.808,4.029Z" transform="translate(-998.605 -3718.1)" fill="#fff"></path><path id="Path_115" data-name="Path 115" d="M1235.137,3779.008a5.875,5.875,0,0,0-1.6-.243,3.475,3.475,0,0,0-1.93.477,1.473,1.473,0,0,0-.733,1.3,1.7,1.7,0,0,0,.4,1.169,2.846,2.846,0,0,0,.985.709,15.636,15.636,0,0,0,1.6.579,14,14,0,0,1,1.915.693,3.382,3.382,0,0,1,1.237,1,3,3,0,0,1-.017,3.376,3.353,3.353,0,0,1-1.466,1.1,5.659,5.659,0,0,1-2.2.4,6.058,6.058,0,0,1-2.38-.487,6.419,6.419,0,0,1-2-1.285l.534-.956a5.712,5.712,0,0,0,1.831,1.2,5.262,5.262,0,0,0,2.04.437,3.7,3.7,0,0,0,2.12-.543,1.678,1.678,0,0,0,.586-.628,1.7,1.7,0,0,0,.2-.836,1.792,1.792,0,0,0-.4-1.2,2.668,2.668,0,0,0-.985-.731c-.388-.166-.934-.367-1.636-.586a17.247,17.247,0,0,1-1.909-.693,3.239,3.239,0,0,1-1.22-.969,2.669,2.669,0,0,1-.5-1.678,2.535,2.535,0,0,1,.5-1.556,3.2,3.2,0,0,1,1.407-1.028,5.629,5.629,0,0,1,2.087-.367,6.654,6.654,0,0,1,1.916.286,6.569,6.569,0,0,1,1.695.75l-.516,1.017A6.064,6.064,0,0,0,1235.137,3779.008Z" transform="translate(-993.01 -3718.155)" fill="#fff"></path><path id="Path_116" data-name="Path 116" d="M1223.908,3769.774a7.123,7.123,0,0,0-.532-2.7,7.849,7.849,0,0,0-1.435-2.3,7,7,0,0,0-2.1-1.6,5.548,5.548,0,0,0-2.535-.6,5.839,5.839,0,0,0-2.4.535,7.446,7.446,0,0,0-2.164,1.464,6.765,6.765,0,0,0-1.534,2.268,7.375,7.375,0,0,0-.567,2.929,8.886,8.886,0,0,0,.567,3.267,7.765,7.765,0,0,0,1.465,2.468,6.329,6.329,0,0,0,2.032,1.534,5.28,5.28,0,0,0,2.266.535,7.021,7.021,0,0,0,2.5-.469,6.468,6.468,0,0,0,2.233-1.433,7.068,7.068,0,0,0,1.6-2.434A9.214,9.214,0,0,0,1223.908,3769.774Zm11.74-29.948v46.622h-10.272l-1.267-3.868h-.268a7.511,7.511,0,0,1-3.834,3.8,13.72,13.72,0,0,1-5.435,1.065,17.424,17.424,0,0,1-7.038-1.3,12.807,12.807,0,0,1-4.87-3.633,15.535,15.535,0,0,1-2.835-5.568,25.839,25.839,0,0,1-.934-7.172,20.965,20.965,0,0,1,1.3-7.738,15.885,15.885,0,0,1,3.472-5.435,13.688,13.688,0,0,1,4.965-3.2,16.5,16.5,0,0,1,5.739-1.032,12.894,12.894,0,0,1,5.467,1.135,8.6,8.6,0,0,1,3.866,3.468h.267v-14.345Zm-57.026,12.6q7.537,0,11.572,4.237t4.029,13.184v16.607h-11.668V3769.84a8.605,8.605,0,0,0-1.464-5.2q-1.464-2-5.2-2a6.275,6.275,0,0,0-2.769.6,6.527,6.527,0,0,0-2.1,1.6,7.3,7.3,0,0,0-1.333,2.3,7.967,7.967,0,0,0-.464,2.7v16.607h-11.605v-33.021h9.869l1.465,3.663h.334a8.933,8.933,0,0,1,3.9-3.534A12.764,12.764,0,0,1,1178.622,3752.431Zm-47.554,35.086a16.506,16.506,0,0,1-5.739-1.036,13.922,13.922,0,0,1-4.991-3.2,16.024,16.024,0,0,1-3.534-5.435,20.369,20.369,0,0,1-1.333-7.738v-16.681h11.719V3770.1a8.515,8.515,0,0,0,1.638,5.336,5.935,5.935,0,0,0,4.975,2.16,5.721,5.721,0,0,0,2.765-.667,6.734,6.734,0,0,0,2.07-1.7,7.881,7.881,0,0,0,1.3-2.366,8.279,8.279,0,0,0,.469-2.736l.073-16.7h11.67v33.014H1142.2l-1.531-3.535h-.335a8.413,8.413,0,0,1-3.967,3.436A13.044,13.044,0,0,1,1131.068,3787.517Zm-42.619-37.554v8.224h21.807v9.2h-21.807v19.075h-11.74v-46.64h36.55v10.136Z" transform="translate(-1076.225 -3738.826)" fill="#fff"></path><path id="Path_117" data-name="Path 117" d="M1246.081,3772.124a8.125,8.125,0,1,1,.006,0Zm16.907-14.97a18.234,18.234,0,0,0-9.8-9.371,19.328,19.328,0,0,0-14.281,0,18.476,18.476,0,0,0-5.837,3.767,17.823,17.823,0,0,0-3.934,5.6,17,17,0,0,0,0,13.673,17.745,17.745,0,0,0,3.934,5.6,18.857,18.857,0,0,0,25.945,0,18.141,18.141,0,0,0,3.969-5.6,16.641,16.641,0,0,0,0-13.673Zm-34.874,22.044a23.082,23.082,0,0,1-9.235,6.669,29.858,29.858,0,0,1-10.906,2.069,27.94,27.94,0,0,1-10.136-1.8,24.809,24.809,0,0,1-8.1-5,23.028,23.028,0,0,1-5.405-7.668,25.625,25.625,0,0,1,.034-19.774,23.5,23.5,0,0,1,5.47-7.734,24.477,24.477,0,0,1,8.144-4.992,28.005,28.005,0,0,1,10-1.783,27.544,27.544,0,0,1,11.271,2.3,25.07,25.07,0,0,1,8.87,6.5l-9.264,6.669a13.546,13.546,0,0,0-10.936-5,15.1,15.1,0,0,0-5.837,1.07,12.63,12.63,0,0,0-4.335,2.9,12.27,12.27,0,0,0-2.7,4.394,17.017,17.017,0,0,0,0,11.14,12.181,12.181,0,0,0,7.1,7.325,15.461,15.461,0,0,0,5.829,1.05,15.859,15.859,0,0,0,6-1.131,12.6,12.6,0,0,0,4.937-3.662Z" transform="translate(-1018.478 -3739.179)" fill="#fff"></path></svg>