<svg xmlns="http://www.w3.org/2000/svg" xmlns:xlink="http://www.w3.org/1999/xlink" id="Layer_1" x="0px" y="0px" viewBox="0 0 642 247" style="enable-background:new 0 0 642 247;" xml:space="preserve"><style type="text/css">	.st0{fill:#AFAFAF;}</style><path class="st0" d="M56.6,54.9c9.1,7.7,14.8,17.7,22.3,26.3c3.3,3.8,6.6,7.8,11.7,9.5c1.6,0.5,3.4,1.2,5.1,1.2  c2.6,0.1,3.5,1.1,2.6,3.9c-0.7,0-1.5,0.1-2.2,0.1c-5.9,0-11.8,0.1-17.7-0.1c-1.3,0-3.1-0.6-3.9-1.6c-5-5.9-9.9-11.9-14.7-18  c-4.2-5.3-8.1-10.8-12.4-16c-2.7-3.3-4.9-3.8-9.4-3.1c-0.1,0.3-0.2,0.6-0.2,0.9c0.1,9.5,0.2,19,0.4,28.5c0.1,3.6,2,5.3,5.5,5.5  c1.7,0.1,3.5,0.2,5.2,0.3c2.9,0.1,3,0.1,2.4,3.4c-13,0-26,0-39.3,0c0-1,0-2,0-3.3c2.2-0.2,4.3-0.3,6.4-0.5c3.8-0.3,5.5-2,5.9-5.7  c0.2-2.1,0.4-4.1,0.4-6.2c0-17,0-34,0-51c0-2.3-0.3-4.6-0.5-7c-0.2-2.5-1.6-4-4.1-4.3s-4.9-0.4-7.4-0.7c-1-3.2-0.7-3.6,2.6-3.7  c8.6-0.3,17.1-0.9,25.7-1c7.9-0.1,16-0.3,23.3,3.1c3.5,1.6,7.1,3.9,9.6,6.8c8.1,9.2,4.6,21.7-5.2,27.9c-3,1.9-6.7,2.7-10.1,4  C58.1,54.5,57.5,54.7,56.6,54.9z M37.7,53.3c5.3-0.6,10.3-0.9,15.2-1.9c5.4-1.1,9.2-4.4,10.6-10.1c1.3-5.3,1.1-10.6-0.7-15.7  c-1.4-4-4.1-7-8.4-7.8c-4.6-0.8-9.2-1-13.8-1.4c-2.3-0.2-3.1,0.8-3.1,3.2c0.1,10.1,0.1,20.2,0.1,30.2C37.6,50.8,37.7,51.7,37.7,53.3  z"></path><path class="st0" d="M81.6,118.5c0.3,10.6,0.6,20.9,0.9,31.3c-2.1,0.4-3.4,0.7-3.9-2.1c-1.3-7.7-3.8-15-10.2-20.3  c-10.8-9-31.6-10.4-40.2,7.3c-1.9,3.9-3.2,8.2-4,12.5c-1.8,9.7-1.8,19.4,0.7,29c5.2,19.4,25.6,27.6,43.4,15.8c4.1-2.7,6.4-7,8-11.5  c1.3-3.6,2.3-7.3,3.4-11.1c0.8,0,1.8,0,2.9,0c0,9.8,0,19.5,0,29.3c-2.1,0.6-3.5,0.3-4.1-2.1c-0.5-2-1.7-3.7-2.7-5.8  c-0.5,0.5-0.9,0.7-1.1,1c-8.9,9.3-20.1,11.9-32.5,10.5c-10-1.1-18.3-5.6-24.9-13.3c-5.6-6.5-8.3-14.2-9-22.6  c-0.8-9.3,0.5-18.3,4.1-26.9c5.4-12.7,15.2-20,28.7-22.2c13.1-2.1,24.8,1.1,34.8,11.1c1-3.5,1.9-6.6,2.9-10  C79.4,118.5,80.3,118.5,81.6,118.5z"></path><path class="st0" d="M165.2,196.8c0,9,0,17.9,0,26.7c0,2.7,1.6,3.6,3.9,3.9c1.5,0.1,3,0.3,4.6,0.4c0,1.1,0,2.1,0,3.3  c-8.8,0-17.5,0-26.5,0c-0.1-1.1-0.1-2.2-0.2-3.5c1.6-0.2,3.1-0.5,4.6-0.5c2.7-0.1,3.8-1.7,4.1-4.1c0.2-1.9,0.2-3.8,0.2-5.7  c0-18.1-0.1-36.2-0.1-54.3c0-0.9,0-1.8-0.1-2.7c-0.2-3.4-1.4-4.5-4.8-4.7c-1.2-0.1-2.5,0-3.9,0c0-1.4,0-2.6,0-3.8  c5-1.1,9.9-2.2,14.9-3.2c1.6-0.4,2.7,0.1,2.9,2c0.2,1.6,0.4,3.1,0.7,4.9c0.6-0.5,1.2-0.8,1.7-1.2c14.3-11.9,35.2-4.5,38.7,14.6  c1.7,9,0.4,17.4-5.3,24.9c-7.5,9.8-21.1,12.2-31.6,5.8C167.6,198.6,166.4,197.7,165.2,196.8z M164.6,176.1c0,4.3-0.1,8.7,0.1,13  c0,1.1,0.5,2.5,1.2,3.3c4.2,4.5,9.4,7.2,15.6,5.6c6.4-1.6,10.2-6,11.8-12.3c1.4-5.6,1.7-11.3,0.8-17.1c-1.3-8.6-6.1-14-13.7-15  c-5.9-0.8-10.5,2-14.3,6.2c-0.9,0.9-1.4,2.4-1.5,3.7C164.5,167.8,164.6,171.9,164.6,176.1z"></path><path class="st0" d="M164.8,53c1.4-1.3,2.5-2.4,3.7-3.4c6.3-5.2,13.4-7,21.2-4.6c4.7,1.4,8,4.5,8.6,9.7c0.3,2.8,0.7,5.6,0.8,8.4  c0.1,8.1,0.1,16.2,0.2,24.2c0,3.3,1.2,4.4,4.5,4.6c3.5,0.3,3.6,0.4,2.8,4.1c-8.4,0-16.9,0-25.3,0c-0.8-3.4-0.7-3.5,2.5-3.7  c3.7-0.2,5.1-1.2,5.1-5c0.1-10.5,0.1-21-0.1-31.4c-0.1-5.1-4.3-8-9.7-7.7c-6.7,0.4-10.8,4.7-14.4,9.6c-0.4,0.5-0.4,1.4-0.4,2.2  c0,8.2,0,16.5,0,24.7c0,5.9,0.6,6.5,6.4,7.2c0.5,0.1,1,0.2,1.4,0.3c0.8,3.9,0.7,4.1-3.1,4.1c-7.2,0-14.5,0-21.9,0c0-1.2,0-2.3,0-3.3  c0.1-0.1,0.3-0.2,0.4-0.2c8.7-0.9,7.4-2.4,7.4-8.5c0.1-9.5,0-19,0-28.5c0-4.1-0.8-4.8-4.9-5.3c-0.9-0.1-2.1-0.3-2.6-0.9  c-1-1.2,0-2.9,1.6-3.3c3.8-0.8,7.7-1.5,11.5-2.4c1.6-0.4,2.7-0.1,3,1.8C163.8,48.2,164.3,50.4,164.8,53z"></path><path class="st0" d="M455.6,93.1c7.3-1.1,7.7-0.7,7.7-9.1c0-8.7,0-17.3,0-26c0-6-0.5-6.5-6.5-7.5c-0.4-0.1-0.8-0.2-1.2-0.3  c-0.7-3.4-0.6-3.3,2.6-3.9c3.4-0.6,6.8-1.4,10.2-2.2c1.9-0.5,3-0.1,3.3,2c0.3,2.2,0.8,4.4,1.2,6.8c1.3-1.2,2.5-2.4,3.8-3.5  c5.7-4.8,12.3-6.5,19.6-4.9c6.8,1.4,10.5,6.3,10.7,14.3c0.2,6.7,0,13.5,0.1,20.2c0,2.7,0.1,5.5,0.3,8.2c0.3,3.8,1.1,4.5,4.9,4.7  c3.3,0.2,3.4,0.3,2.8,3.7c-8.4,0-16.9,0-25.3,0c-0.8-3.1-0.7-3.3,2.3-3.7c4.1-0.5,5.2-1.2,5.2-5.2c0.1-10.2,0.1-20.5-0.3-30.7  c-0.2-4.9-3.1-7.3-8.1-7.8c-5.7-0.6-14.1,4.5-16.2,9.8c-0.2,0.4-0.3,0.8-0.3,1.2c0.1,9.2,0.1,18.5,0.3,27.7c0.1,3.7,1.3,4.6,5.2,4.9  c1.1,0.1,2.6-0.4,2.9,1.5c0.3,2.4-0.1,2.9-2.6,2.9c-6.7,0-13.5,0-20.2,0C455.2,96.5,455.2,96.5,455.6,93.1z"></path><path class="st0" d="M331.2,191.1c0,6.2-2.7,10.2-7.6,10.9c-7.8,1.2-10.4-1.2-12.8-7.6c-0.7,0.5-1.3,0.9-2,1.3  c-5,3.2-10.1,6-16.2,6.6c-4.9,0.4-10.4-2.2-12.5-6.1c-2.2-4.2-1.6-9,2.1-13.2c1.5-1.7,3.3-3.4,5.3-4.5c6.1-3.2,12.3-6.2,18.6-9.1  c5-2.2,5-2.1,4.8-7.4c-0.3-6.2-3.5-9.4-9.7-9.6c-2-0.1-4,0.1-5.9,0.5c-2.5,0.6-4.1,2.2-4.6,5c-0.3,1.5-0.9,3-1.7,4.4  c-1.1,1.8-3.9,2.4-5.8,1.5c-1.9-1-2.3-2.7-1.9-4.7c0.7-3.6,3.2-6.2,6.3-7.7c8.5-4.2,17.3-4.2,26-0.4c6,2.6,6.7,8,6.8,13.6  c0.1,8.8,0.1,17.7,0.1,26.5c0,0.9-0.1,1.9,0.3,2.7c0.5,1,1.4,2.5,2.2,2.5c1.3,0,2.6-0.8,3.8-1.5c0.5-0.3,0.8-1.1,0.9-1.7  C327.8,190.7,329.2,190.5,331.2,191.1z M310.6,171.1c-5,2.5-9.6,4.5-13.9,7c-3.2,1.8-5.6,4.6-6.6,8.2c-0.9,3.2-0.6,6.4,1.8,8.9  c2.3,2.4,5.4,2.2,8.1,1c3.3-1.5,6.4-3.5,9.5-5.4c0.5-0.3,1-1,1-1.6C310.7,183.4,310.6,177.6,310.6,171.1z"></path><path class="st0" d="M142.1,191c0.9,0,1.7,0,2.6,0c0.5,5.3-2,9.9-6.5,10.8c-6.6,1.4-10.7,0.6-13.6-7.1c-3.5,1.9-6.9,3.9-10.4,5.6  c-5,2.4-10.2,3-15.4,0.3c-5.4-2.8-7.7-9.2-4.6-14.4c1.7-2.8,4.1-5.7,6.9-7.3c6.2-3.6,12.9-6.4,19.4-9.6c4.5-2.2,3.9-0.9,3.8-6  c-0.2-9.1-8.1-13.9-16.6-10c-1.9,0.9-3.2,2.2-3.6,4.5c-0.3,1.5-0.8,3.1-1.6,4.4c-1.1,1.9-4,2.7-5.9,1.6c-2-1.1-2.4-2.9-1.9-4.9  c0.8-3.5,3.2-6,6.2-7.5c9-4.2,18.1-4.5,27.1,0.3c3.9,2,5.7,5.6,5.8,9.8c0.2,9.4,0.2,18.8,0.3,28.2c0,1.2-0.1,2.6,0.3,3.7  c0.4,1.1,1.4,2.7,2.2,2.8c1.2,0.1,2.8-0.6,3.8-1.5C141.3,193.9,141.5,192.4,142.1,191z M125,171.1c-5,2.5-9.5,4.5-13.8,6.9  c-3,1.7-5.4,4.3-6.4,7.7c-1.1,3.4-0.9,6.9,1.7,9.6c2.5,2.5,5.5,1.8,8.4,0.7c1.2-0.5,2.4-1.1,3.6-1.7c4.9-2,7.5-5.2,6.6-10.9  C124.6,179.6,125,175.7,125,171.1z"></path><path class="st0" d="M448.7,86c0.8,0.1,1.5,0.1,2.2,0.2c0.7,5.2-2.2,9.6-6.8,10.9c-6.3,1.7-10.2-0.4-13.3-7.5  c-2.4,1.4-4.8,2.8-7.2,4.2c-3.8,2.2-7.8,3.8-12.3,3.6c-5-0.3-9.3-2.1-11.2-6.9c-2-4.9-0.8-9.6,3.1-13c3.1-2.8,6.8-5.1,10.5-7.1  c4.6-2.4,9.5-4.5,14.4-6.4c2.4-0.9,3.3-2.2,2.9-4.6c-0.1-0.7,0-1.5-0.1-2.2c-0.2-5.6-3.5-9.1-9.2-9.4c-2.1-0.1-4.3,0-6.4,0.5  c-2.6,0.6-4.3,2.3-4.7,5.1c-0.4,2.5-1.1,5-3.9,5.9c-3.5,1.1-6.1-1.2-5.3-4.8c0.7-3.5,3.2-6.1,6.1-7.5c8.8-4.3,17.8-4.4,26.7-0.1  c4.3,2.1,6,6,6.2,10.4c0.3,7.3,0.2,14.6,0.3,22c0,2.9,0.2,5.8,0.3,8.7c0.1,1.8,0.4,3.4,2.6,3.7c2,0.3,3.4-0.7,4.1-2.5  C447.9,88.4,448.2,87.3,448.7,86z M431.3,65.8c-5.3,2.7-10.1,4.9-14.7,7.6c-3.1,1.8-5.2,4.6-6.1,8.2c-1.8,6.9,3,12,9.7,9.6  c3.7-1.3,7-4,10.4-6.2c0.4-0.3,0.6-1.1,0.6-1.7C431.3,77.8,431.3,72.3,431.3,65.8z"></path><path class="st0" d="M264.5,86.1c0.3,5.2-2.1,9.2-6.3,10.5c-6.2,1.9-9.8,0.1-14-7.2c-3.2,1.8-6.3,3.7-9.5,5.3c-3.9,2-8,3-12.3,2.1  c-4.2-0.8-7.7-2.8-9.3-7c-1.6-4.3-0.7-8.4,2.3-11.6c2.2-2.4,4.9-4.6,7.8-6.1c6.1-3.2,12.5-5.9,18.8-8.7c1.7-0.8,2.5-1.7,2.2-3.6  c-0.2-1.9-0.2-3.8-0.5-5.7c-0.3-2.7-2.2-4.3-4.4-5.3c-3.9-1.9-7.9-1.8-11.9-0.4c-2.1,0.8-3.5,2.4-3.8,4.9c-0.1,1.2-0.6,2.4-1.2,3.5  c-1.2,2.2-3.8,3.1-6,2.2c-2-0.9-2.9-3.3-1.8-5.8c2.1-4.8,6-7.5,10.9-8.6c5.5-1.3,11.1-1.3,16.6,0c7.2,1.7,10.8,6.4,11,14.1  c0.2,8.2,0,16.5,0.1,24.7c0,1.8,0,3.7,0.4,5.4c0.3,1.1,1.3,2.6,2.3,2.7c1.1,0.2,2.6-0.6,3.7-1.3c0.6-0.4,1-1.4,1.1-2.2  C261.2,86,262.3,85.4,264.5,86.1z M243.8,65.9c-5,2.5-9.6,4.5-13.9,7c-3.5,2-6,5-6.9,9.1c-1.5,6.6,3.1,11.5,9.4,9.3  c3.9-1.3,7.3-4.1,10.9-6.3c0.3-0.2,0.5-0.9,0.5-1.3C243.8,78,243.8,72.3,243.8,65.9z"></path><path class="st0" d="M333.5,48.2c2.3-0.5,1.7-4.6,5.1-3.6c0,5.2,0,10.3,0,15.4c-1.5,0.7-2.1,0.2-2.7-1.2  c-3.4-8.6-10.1-12.7-19.3-11.4c-2,0.3-4,1.6-5.5,3c-2.5,2.3-2.4,5.8,0.4,7.9c2.5,1.9,5.4,3.3,8.2,4.6c5.2,2.3,10.5,4.1,15.6,6.6  c4.6,2.3,7.4,6.2,7.9,11.4c0.7,7.6-3.9,13.4-12.1,15.3c-7.8,1.9-15.2,0.6-22.1-3.4c-0.6-0.3-1.1-0.7-1.5-0.9c-2.8,0.6-2,5.6-6.3,4.2  c0-5.1,0-10.4,0-15.6c0-0.3,0.6-1,0.8-0.9c0.6,0.1,1.3,0.3,1.6,0.7c0.8,1.2,1.4,2.7,2.2,3.9c4.6,7.2,13.5,10.7,21.8,8.6  c3.5-0.9,5.7-3.1,6.5-6.6c0.6-2.9-1-5.9-4.2-7.6c-3.8-2-7.8-3.6-11.7-5.5c-3.5-1.6-7.1-2.9-10.3-5c-9-5.9-8.4-17.3,1.2-22.2  C317.5,41.8,325.7,43.4,333.5,48.2z"></path><path class="st0" d="M355.4,91.7c-0.9,1.3-1.6,2.6-2.6,3.7c-0.4,0.5-1.2,1.1-1.7,1c-0.4-0.1-1-1-1-1.6c-0.1-4.4-0.1-8.8,0-13.2  c0-0.6,0.7-1.3,1-1.9c0.6,0.4,1.5,0.7,1.8,1.3c2.5,5.4,6.3,9.4,12,11.3c3.8,1.3,7.6,1.6,11.6,0.7c3.4-0.8,5.7-2.8,6.4-6.2  c0.7-3.4-0.7-6.2-4.2-8c-4.1-2.1-8.5-3.9-12.7-5.8c-3-1.4-6.2-2.6-9-4.4c-9.3-6-8.9-17.4,1.1-22.5c7.6-3.9,15.3-2.9,22.7,1.2  c0.5,0.3,1,0.6,1.5,0.9c0.1,0,0.2,0,0.1,0c2.2-0.6,1.7-4.5,5.1-3.7c0,5.1,0,10.2,0,15.5c-1.4,0.7-2.1,0.3-2.7-1.2  c-3.2-8.5-10.7-13-19.6-11.3c-2.1,0.4-4.3,2.1-5.8,3.8c-1.9,2-1.6,4.8,0.5,6.5c2.6,2.1,5.7,3.8,8.7,5.2c4.8,2.2,10,3.7,14.7,6.2  c7.5,4,10.5,12.8,6.8,19.5c-2.9,5.3-7.8,7.4-13.6,8.2C368.9,97.9,362,96.1,355.4,91.7z"></path><path class="st0" d="M334.9,124.3c0-1.3,0-2.5,0-3.4c5.9-1.1,11.5-2.1,17.5-3.2c0,1.2,0,2.2,0,3.2c0,21.9,0,43.8,0,65.7  c0,2.2,0.2,4.3,0.3,6.5c0,2.5,1.4,3.6,3.7,3.8c1.4,0.1,2.8,0.3,4.4,0.5c0,1.2,0,2.4,0,3.9c-8.9,0-17.7,0-26.8,0c0-1.2,0-2.3,0-3.6  c1.5-0.1,3-0.1,4.5-0.3c2.2-0.2,3.8-1.3,3.9-3.7c0.1-1.8,0.3-3.7,0.3-5.5c0-17.8,0-35.7,0-53.5c0-1.7-0.2-3.3-0.4-5  c-0.5-4.1-1.4-5-5.5-5.2C336.3,124.4,335.7,124.3,334.9,124.3z"></path><path class="st0" d="M108.4,63.8c-0.5,7-0.5,13.4,1.7,19.7c1.8,5.3,4.9,9.3,10.9,10c6.9,0.9,12.8-0.9,16.4-7.2c1-1.8,2.3-2.5,4.5-2  c-0.8,3.8-2.9,6.6-5.8,8.9c-8.6,6.7-21.8,6.2-30-1.1c-14.2-12.5-11.7-37,5-45.8c11.8-6.2,28-1.9,31.3,15c0.4,2.2-0.4,2.5-2.3,2.5  c-9.5-0.1-19,0-28.5,0C110.6,63.8,109.6,63.8,108.4,63.8z M108.9,60.3c7.1,0,13.9,0,20.8-0.1c0.5,0,1.4-0.9,1.4-1.4  c0.7-4.8-2.8-9.8-7.4-11C115.8,45.8,109,51.3,108.9,60.3z"></path><path class="st0" d="M613.7,83.8c-1.7,5.8-5.6,9.6-10.8,11.8c-16.4,7.2-31.3-4.2-33.9-18.2c-1.8-9.6,0.1-18.4,6.6-25.9  c7.1-8.3,19.9-10.4,29.1-4.5c5,3.2,7.8,8.1,9.1,13.8c0.2,0.8,0,1.8,0,2.9c-11.3,0-22.4,0-33.9,0c-0.8,9-0.8,17.5,4.4,25.1  c2.6,3.9,6.9,5,11.4,4.9c6.4-0.1,11.2-3,14-8.7C610.6,83.1,612,83.6,613.7,83.8z M580.5,60.1c7.5,0,14.8,0,22.1,0  c0.9-7-2.6-11.8-9-12.7C586.4,46.5,581.5,51.2,580.5,60.1z"></path><path class="st0" d="M563.3,83.1c-1,7.2-7.4,13-15.3,14.3c-21.3,3.4-35.2-14.8-29.3-35.3c4.4-15.1,21.7-23,35.9-16.4  c2.1,1,4,2.7,5.6,4.4c1.6,1.8,1.4,4,0.2,6c-1,1.7-2.4,2.1-4.2,1.9c-2.5-0.3-3.7-1.9-4.2-4.1c-1.3-6.1-3.2-6.8-10-6.4  c-6.3,0.4-10.2,4.1-11.9,9.8c-2.8,9.3-2.6,18.6,1.3,27.6c2.7,6.3,8,9.1,14.8,8.8c6.4-0.3,11.2-3,13.4-9.2  C560.4,82.5,561.7,83,563.3,83.1z"></path><path class="st0" d="M247.2,154.4c-2.5,0-4.6,0-6.8,0c-0.3-2.3-0.7-3.7,2.4-4.3c5.9-1.1,8.5-5.9,10.4-11.1c0.4-1.1,0.5-2.3,0.8-3.7  c0.8,0,1.6-0.1,2.8-0.1c0,5.1,0,10,0,15.2c4.9,0,9.6,0,14.5,0c0,1.5,0,2.6,0,3.9c-4.7,0-9.3,0-14.2,0c-0.1,0.9-0.2,1.6-0.2,2.3  c0,9.7,0,19.5,0,29.2c0,1.9,0.2,3.8,0.5,5.7c0.6,5.3,6.2,7.7,10.4,4.5c0.6-0.4,1.1-1,1.6-1.5c2.2-2.3,2.1-2.3,4.8-0.4  c-3.8,9.4-17.6,11.9-23.7,3.9c-1.7-2.2-2.5-5.5-2.7-8.3c-0.5-10.6-0.5-21.1-0.7-31.7C247.1,157,247.2,155.9,247.2,154.4z"></path><path class="st0" d="M237.2,197.4c0,1.4,0,2.5,0,3.8c-9.1,0-18.2,0-27.4,0c0-1.2,0-2.3,0-3.7c1.4-0.1,2.8-0.1,4.2-0.2  c2.5-0.1,4.1-1.2,4.4-3.8c0.1-0.9,0.3-1.8,0.3-2.7c0-9.3,0-18.7,0-28c0-0.3,0-0.7,0-1c-0.2-4.9-1.1-5.8-5.9-5.9c-0.9,0-1.8,0-2.7,0  c-1-3.6-0.8-3.7,2.5-4.2c4.3-0.7,8.6-1.6,13-2.5c0.8-0.2,1.6-0.3,2.8-0.5c0,1.2,0,2.2,0,3.2c0,11.7,0,23.5,0,35.2  c0,1.7,0.1,3.5,0.3,5.2c0.4,3.6,1,4.2,4.6,4.6C234.5,197.2,235.7,197.3,237.2,197.4z"></path><path class="st0" d="M286.3,43.7c0,1.4,0,2.4,0,3.4c0,11.4,0,22.8,0,34.2c0,2.3,0.3,4.6,0.4,7c0.1,2.4,1.5,3.4,3.6,3.7  c1.5,0.2,3.1,0.3,4.8,0.5c0,1.2,0,2.1,0,3.3c-9,0-17.9,0-27.1,0c0-1,0-2,0-3.2c1.7-0.2,3.5-0.4,5.2-0.5c2.1-0.2,3.6-1.5,3.6-3.5  c0-11.3,0-22.6-0.3-33.9c-0.1-3.4-1.1-3.9-4.4-4.1c-1.3-0.1-2.6,0-3.8,0c-0.7-3.5-0.5-3.6,2.4-4c4.3-0.6,8.5-1.5,12.7-2.3  C284.1,44,284.9,43.9,286.3,43.7z"></path><path class="st0" d="M229.9,124.2c0,4-2.9,7.2-6.5,7.2c-3.3,0-6.5-3.7-6.6-7.5c0-3.8,2.9-6.8,6.5-6.8  C227,117.1,229.9,120.3,229.9,124.2z"></path><path class="st0" d="M274.4,19.5c-0.1-3.8,2.9-7.1,6.5-7c3.6,0,6.3,2.8,6.4,6.6c0.1,3.8-2.9,7.2-6.3,7.2  C277.3,26.2,274.4,23.2,274.4,19.5z"></path></svg>